<svg xmlns="http://www.w3.org/2000/svg" viewBox="100 30 200 230">
    <rect width="400" height="300" fill="none"/>
    <g transform="translate(150, 80)">
        <path d="M50,100 C30,100 30,70 45,60 C40,50 50,30 55,45 C65,20 75,40 70,60 C85,65 80,100 50,100 Z" fill="#dd6b20"/>
        <path d="M50,90 C40,90 40,75 48,68 C50,60 55,55 55,65 C60,60 65,75 50,90 Z" fill="#f6ad55"/>
        <rect x="10" y="80" width="30" height="15" fill="#fbd38d" rx="7" transform="rotate(-30 25 87)"/>
        <circle cx="50" cy="65" r="50" fill="none" stroke="#e53e3e" stroke-width="8"/>
        <line x1="15" y1="30" x2="85" y2="100" stroke="#e53e3e" stroke-width="8"/>
    </g>
    <text x="200" y="240" font-family="sans-serif" font-size="20" fill="#fff" text-anchor="middle" font-weight="bold">Не тушить самостоятельно!</text>
</svg>